<?xml version="1.0" standalone="no"?>
<!DOCTYPE svg PUBLIC "-//W3C//DTD SVG 20010904//EN"
 "http://www.w3.org/TR/2001/REC-SVG-20010904/DTD/svg10.dtd">
<svg version="1.0" xmlns="http://www.w3.org/2000/svg"
 width="225.000000pt" height="225.000000pt" viewBox="0 0 225.000000 225.000000"
 preserveAspectRatio="xMidYMid meet">

<g transform="translate(0.000000,225.000000) scale(0.100000,-0.100000)"
fill="#1bb039" stroke="none">
<path d="M1227 2239 c-9 -6 -33 -41 -52 -79 -39 -78 -55 -90 -120 -90 -45 0
-45 0 -91 71 -62 96 -70 99 -187 60 -52 -18 -102 -40 -111 -50 -14 -15 -17
-36 -14 -106 3 -84 2 -88 -24 -110 -15 -13 -45 -26 -67 -30 -34 -6 -49 -2 -95
24 -52 30 -90 38 -112 23 -33 -22 -144 -159 -144 -177 0 -11 20 -52 45 -89 25
-38 45 -78 45 -89 0 -11 -20 -39 -44 -63 -42 -43 -45 -44 -109 -44 -92 0 -102
-11 -128 -137 -15 -78 -18 -107 -9 -123 6 -11 42 -36 80 -55 78 -39 90 -55 90
-120 0 -45 0 -45 -71 -91 -38 -25 -75 -56 -80 -68 -13 -27 41 -204 70 -230 15
-14 35 -17 106 -14 84 3 88 2 110 -24 13 -15 26 -45 30 -67 6 -34 2 -49 -24
-95 -30 -52 -38 -90 -23 -112 22 -32 159 -144 176 -144 12 0 52 21 90 45 38
25 78 45 89 45 11 0 39 -20 63 -44 43 -42 44 -45 44 -109 0 -92 11 -102 137
-128 78 -15 107 -18 123 -9 11 6 36 42 55 80 39 78 55 90 120 90 45 0 45 0 91
-71 25 -38 56 -75 68 -80 27 -13 204 41 230 70 14 15 17 35 14 106 -3 84 -2
88 25 111 15 12 44 26 64 30 31 6 47 2 95 -24 55 -31 92 -39 114 -24 33 22
144 159 144 177 0 11 -20 52 -45 89 -25 38 -45 78 -45 89 0 11 20 39 44 63 42
43 45 44 109 44 92 0 102 11 128 137 15 78 18 107 9 123 -6 11 -42 36 -80 55
-78 39 -90 55 -90 120 0 45 0 45 71 91 38 25 75 56 80 68 13 27 -41 204 -70
230 -15 14 -35 17 -106 15 -84 -3 -89 -2 -111 24 -13 15 -26 44 -30 64 -6 31
-2 47 24 95 31 55 39 92 24 114 -22 33 -159 144 -177 144 -12 0 -48 -18 -81
-39 -91 -61 -106 -62 -159 -8 -44 43 -45 46 -45 110 0 91 -11 102 -134 127
-113 23 -106 22 -129 9z m103 -379 c132 -38 224 -93 330 -200 159 -158 224
-314 224 -535 0 -221 -65 -377 -224 -535 -158 -159 -314 -224 -535 -224 -221
0 -377 65 -535 224 -159 158 -224 314 -224 535 0 145 16 213 81 345 40 81 60
109 142 190 96 95 173 146 283 186 130 48 318 53 458 14z"/>
<path d="M952 1770 c-115 -30 -205 -84 -297 -175 -133 -133 -195 -283 -195
-470 0 -114 26 -221 77 -318 51 -97 173 -219 270 -270 196 -103 440 -103 636
0 97 51 219 173 270 270 103 196 103 440 0 636 -51 97 -173 219 -270 270 -145
76 -333 98 -491 57z m371 -222 c103 -49 175 -122 225 -225 36 -77 37 -80 37
-198 0 -118 -1 -121 -37 -198 -50 -103 -122 -175 -225 -225 -77 -36 -80 -37
-198 -37 -118 0 -121 1 -198 37 -103 50 -175 122 -225 225 -36 77 -37 80 -37
198 0 118 1 121 37 198 59 123 158 209 293 253 25 9 78 13 145 11 98 -2 110
-5 183 -39z"/>
</g>
</svg>
