<?xml version="1.0" standalone="no"?>
<!DOCTYPE svg PUBLIC "-//W3C//DTD SVG 20010904//EN"
 "http://www.w3.org/TR/2001/REC-SVG-20010904/DTD/svg10.dtd">
<svg version="1.0" xmlns="http://www.w3.org/2000/svg"
 width="5.000000pt" height="5.000000pt" viewBox="0 0 512.000000 512.000000"
 preserveAspectRatio="xMidYMid meet">

<g transform="translate(0.000000,512.000000) scale(0.100000,-0.100000)"
fill="#ffffff" stroke="none">
<path d="M1465 4734 c-665 -242 -1069 -394 -1083 -407 -42 -39 -52 -73 -67
-234 -90 -965 -5 -1794 252 -2448 110 -281 275 -567 448 -780 156 -192 397
-405 605 -535 289 -181 698 -322 935 -324 254 -2 699 158 1000 359 287 192
546 460 741 767 449 709 625 1728 509 2961 -15 161 -25 195 -67 234 -29 28
-2137 793 -2181 793 -18 -1 -509 -174 -1092 -386z m2075 -300 l945 -343 12
-143 c32 -385 27 -882 -13 -1223 -100 -879 -424 -1554 -943 -1972 -257 -206
-598 -366 -893 -418 -95 -17 -99 -17 -204 4 -675 136 -1242 628 -1547 1341
-144 339 -231 714 -279 1205 -17 173 -15 859 3 1058 l14 148 960 349 c609 221
967 347 980 343 11 -3 445 -160 965 -349z"/>
<path d="M2263 3905 c-156 -42 -278 -155 -335 -311 -19 -54 -22 -83 -26 -346
l-4 -288 -45 0 c-25 0 -64 -5 -87 -12 -55 -16 -138 -99 -154 -154 -17 -59 -17
-1049 0 -1108 16 -55 99 -138 154 -154 59 -17 1529 -17 1588 0 55 16 138 99
154 154 17 59 17 1049 0 1108 -16 55 -99 138 -154 154 -23 7 -62 12 -87 12
l-45 0 -4 288 c-4 263 -7 292 -26 346 -58 158 -180 270 -339 311 -79 21 -514
20 -590 0z m565 -333 c64 -46 67 -59 70 -349 l3 -263 -340 0 -341 0 0 248 c1
301 9 334 93 376 27 14 67 16 257 14 218 -3 226 -4 258 -26z m-158 -966 c104
-69 119 -217 29 -307 l-39 -39 0 -194 c0 -232 2 -226 -100 -226 -102 0 -100
-6 -100 226 l0 194 -39 39 c-80 80 -81 201 -1 281 22 22 54 44 72 49 53 16
135 6 178 -23z"/>
</g>
</svg>
